<?xml version="1.0" standalone="no"?>
<!DOCTYPE svg PUBLIC "-//W3C//DTD SVG 20010904//EN"
 "http://www.w3.org/TR/2001/REC-SVG-20010904/DTD/svg10.dtd">
<svg version="1.0" xmlns="http://www.w3.org/2000/svg"
 width="697.000000pt" height="743.000000pt" viewBox="0 0 697.000000 743.000000"
 preserveAspectRatio="xMidYMid meet">

<g transform="translate(0.000000,743.000000) scale(0.100000,-0.100000)"
fill="#000000" stroke="none">
<path d="M3777 7044 c-9 -3 -15 -10 -12 -15 7 -10 4 -11 -42 -13 -47 -3 -53
-16 -8 -16 30 0 36 -3 27 -12 -8 -8 -134 -14 -434 -19 -233 -4 -434 -10 -448
-13 -23 -6 -215 -18 -694 -47 -93 -5 -175 -8 -183 -5 -9 4 -10 12 -3 31 8 22
7 25 -14 25 -13 0 -44 -3 -69 -6 -43 -6 -45 -8 -37 -30 8 -20 5 -27 -16 -41
-15 -9 -52 -23 -83 -29 -243 -55 -269 -63 -323 -106 -26 -21 -31 -21 -79 -9
-38 10 -91 12 -198 7 -83 -4 -140 -3 -133 2 10 6 8 13 -8 27 -17 15 -30 17
-90 11 -39 -4 -83 -11 -98 -16 -15 -4 -62 -16 -105 -26 -44 -10 -81 -22 -83
-28 -7 -22 -13 -138 -20 -368 -8 -254 7 -704 33 -1063 9 -115 19 -248 22 -293
7 -96 0 -119 -24 -76 -9 16 -47 85 -85 154 -37 68 -73 126 -79 128 -29 10 4
-346 46 -508 8 -30 17 -64 20 -75 9 -38 58 -98 88 -108 41 -13 41 -12 11 -48
-15 -17 -30 -45 -33 -60 -3 -16 -8 -29 -12 -29 -3 0 -24 37 -46 82 -38 78
-162 266 -224 338 l-30 35 -1 -31 c0 -41 24 -172 56 -299 62 -244 121 -355
191 -355 29 0 29 -19 3 -62 -11 -18 -20 -41 -20 -50 0 -29 -17 -21 -41 20 -60
99 -290 354 -306 339 -10 -11 22 -123 79 -277 95 -253 159 -350 233 -350 19 0
35 -2 35 -3 0 -2 -7 -18 -16 -35 -8 -17 -15 -49 -16 -71 0 -48 -11 -46 -58 15
-54 70 -298 284 -323 284 -13 0 -6 -27 29 -110 89 -214 182 -371 256 -435 36
-30 49 -36 80 -33 l36 3 -5 -75 c-3 -41 -7 -76 -8 -78 -2 -2 -31 22 -66 54
-98 87 -331 236 -346 221 -15 -16 164 -306 249 -404 23 -27 61 -63 85 -82 38
-29 48 -33 86 -29 l44 5 1 -73 1 -74 -42 29 c-86 58 -381 191 -395 177 -7 -8
14 -37 136 -189 108 -134 184 -206 259 -243 51 -25 64 -26 120 -9 20 7 21 3
25 -62 2 -37 2 -70 1 -72 -1 -2 -33 10 -70 26 -38 17 -124 45 -193 62 -69 18
-138 37 -154 42 -17 5 -34 5 -38 1 -13 -13 246 -260 329 -315 90 -60 167 -80
207 -53 35 22 42 16 51 -41 4 -27 11 -56 16 -66 11 -20 5 -21 -56 -8 -22 5
-74 16 -115 24 -41 9 -121 19 -177 23 -121 8 -129 0 -60 -58 145 -121 340
-227 434 -235 56 -5 64 -3 86 20 26 25 37 20 37 -19 0 -8 7 -31 16 -52 8 -20
15 -39 15 -40 -1 -2 -92 -5 -203 -7 -112 -1 -216 -7 -232 -12 l-30 -9 30 -21
c66 -47 217 -124 312 -160 41 -15 99 -27 149 -30 78 -5 82 -5 108 21 31 31 45
33 45 7 0 -10 11 -35 25 -55 14 -21 23 -41 21 -45 -3 -4 -47 -11 -98 -14 -84
-6 -259 -43 -315 -67 -13 -5 -23 -14 -23 -20 0 -19 170 -83 300 -113 161 -38
225 -32 280 25 l38 38 19 -37 c11 -21 34 -47 50 -59 l31 -21 -66 -12 c-74 -14
-336 -114 -373 -142 -13 -10 -21 -20 -17 -24 16 -17 270 -54 367 -55 128 0
174 13 223 64 37 37 39 38 53 20 8 -10 15 -21 15 -24 0 -3 13 -14 30 -23 16
-10 30 -22 30 -26 0 -5 -20 -14 -45 -21 -72 -20 -365 -196 -365 -219 0 -14
165 -24 280 -17 209 12 310 63 310 155 l0 31 41 -45 c22 -24 49 -47 60 -50 20
-7 26 -25 8 -25 -20 0 -143 -86 -209 -146 -36 -32 -84 -74 -106 -91 -37 -29
-64 -73 -46 -73 4 0 66 9 137 20 161 25 283 62 351 105 59 38 74 59 74 104 0
37 4 38 46 6 18 -14 39 -25 47 -25 7 0 16 -2 19 -5 2 -3 -48 -59 -112 -124
-133 -135 -219 -248 -195 -257 41 -16 394 131 462 193 39 35 63 82 63 123 l0
30 37 -20 c21 -11 48 -20 60 -20 23 0 31 -14 14 -24 -11 -7 -101 -127 -163
-216 -85 -124 -116 -190 -89 -190 33 0 242 117 331 186 94 72 140 135 140 193
0 60 -71 112 -125 91 -39 -15 -43 -13 -41 22 1 29 -6 37 -84 91 -47 33 -120
89 -163 124 -42 35 -82 61 -87 58 -8 -5 37 -93 97 -188 14 -22 23 -40 21 -42
-2 -1 -28 -5 -60 -8 l-56 -5 13 32 c15 36 7 94 -21 147 -32 63 -118 186 -162
234 -25 27 -75 83 -110 122 -35 40 -68 73 -73 73 -15 0 -10 -50 12 -125 26
-86 25 -85 84 -220 68 -158 68 -151 1 -151 -31 1 -56 3 -56 6 0 3 7 14 15 24
8 11 15 40 15 64 0 42 -18 121 -30 132 -3 3 -15 26 -27 52 -46 98 -242 378
-264 378 -11 0 -11 -45 0 -90 5 -19 14 -62 21 -95 14 -71 44 -178 72 -258 23
-63 20 -74 -10 -58 -12 6 -36 11 -56 11 -45 0 -51 12 -21 38 22 19 25 30 25
86 0 103 -67 269 -200 496 -54 92 -49 85 -60 74 -16 -17 18 -332 51 -464 13
-52 12 -52 -31 -30 -21 11 -52 20 -67 20 l-27 0 23 16 c13 9 29 32 37 50 16
38 19 180 4 189 -5 3 -10 14 -10 25 0 48 -158 442 -175 436 -6 -2 -11 -97 -13
-253 l-2 -250 -47 23 c-25 13 -54 24 -62 24 -9 1 0 10 20 20 29 15 41 30 53
66 20 58 20 105 1 214 -22 124 -26 143 -83 335 -35 120 -41 115 -71 -54 -10
-62 -22 -115 -25 -118 -3 -4 -6 18 -6 48 -1 135 -55 502 -73 496 -23 -7 -78
-212 -108 -400 -6 -43 -15 -80 -19 -82 -4 -3 -13 9 -20 25 -7 17 -26 40 -41
51 -37 26 -36 33 3 44 83 25 116 181 104 484 -7 161 -11 191 -25 191 -8 0
-111 -215 -111 -231 0 -5 -4 -17 -9 -27 -5 -9 -19 -51 -31 -92 -12 -41 -23
-81 -26 -89 -3 -9 -16 4 -34 33 -17 26 -37 49 -45 52 -27 11 -16 24 19 24 28
0 41 8 68 39 37 44 48 74 76 216 23 112 47 369 37 385 -11 18 -38 -13 -90
-101 -51 -86 -128 -239 -140 -278 -8 -28 -14 -23 -58 51 l-34 56 36 -5 c99
-13 167 126 236 481 29 153 28 136 12 136 -17 0 -124 -134 -212 -267 l-68
-103 -27 58 -27 57 43 11 c53 13 86 35 118 77 36 47 94 175 132 292 18 55 37
101 42 103 14 4 29 -19 36 -58 10 -58 12 -64 24 -93 11 -27 15 -38 28 -102 4
-16 10 -35 15 -40 4 -6 11 -30 15 -53 4 -26 12 -42 20 -42 17 0 18 23 3 53 -9
20 -9 20 4 5 15 -19 37 -24 37 -9 0 5 -7 12 -15 15 -10 3 -15 18 -15 38 1 18
-2 47 -5 63 l-7 30 21 -33 c12 -18 21 -45 21 -61 0 -16 6 -31 15 -35 8 -3 15
-16 15 -28 0 -29 19 -86 71 -213 4 -11 13 -38 20 -60 6 -22 19 -58 29 -80 9
-22 31 -76 49 -120 67 -163 91 -217 174 -382 83 -167 229 -434 252 -463 6 -8
28 -44 49 -80 20 -36 59 -103 87 -149 46 -78 48 -84 32 -97 -15 -11 -16 -16
-5 -34 7 -11 10 -25 7 -30 -8 -13 70 -130 100 -152 15 -11 19 10 5 27 -13 16
-5 35 15 35 9 0 12 6 8 16 -4 11 -8 12 -13 4 -5 -8 -10 -9 -14 -2 -3 6 -2 13
4 17 5 3 94 -79 197 -183 104 -104 240 -232 303 -283 112 -92 295 -229 306
-229 2 0 13 -8 24 -17 66 -62 348 -216 462 -253 l65 -22 69 20 c38 11 119 39
179 62 115 43 165 58 153 45 -4 -5 -2 -15 5 -23 10 -13 8 -14 -18 -8 -19 4
-25 3 -16 -2 9 -7 10 -12 2 -16 -6 -4 -9 -11 -6 -16 4 -6 14 -4 25 2 15 10 22
10 32 0 9 -9 7 -12 -10 -12 -11 0 -26 -8 -31 -18 -9 -14 -12 -15 -20 -3 -8 12
-17 8 -50 -22 -23 -20 -51 -37 -64 -37 -29 0 -47 -18 -47 -45 0 -56 116 -181
292 -313 97 -73 118 -83 118 -58 0 37 -87 226 -169 369 -28 48 -49 87 -48 88
1 0 20 2 42 3 22 2 50 7 62 11 21 7 22 5 17 -23 -19 -95 122 -231 365 -353 56
-27 106 -47 111 -44 14 8 -19 70 -106 197 -90 134 -123 178 -149 201 -16 15
-17 20 -5 27 8 6 24 10 36 10 11 0 29 7 40 15 27 21 34 19 34 -10 0 -78 56
-133 207 -206 123 -59 312 -124 325 -111 17 17 -150 218 -266 320 -56 50 -65
62 -43 62 8 0 31 11 51 25 43 29 56 26 56 -14 0 -66 124 -137 306 -175 111
-24 246 -38 256 -28 18 18 -284 269 -357 296 l-20 8 20 11 c11 7 36 29 57 50
38 41 42 40 52 -9 11 -52 68 -88 171 -110 72 -16 411 -19 420 -4 11 18 -262
186 -356 220 -52 18 -77 40 -46 40 9 0 31 18 49 39 l33 39 33 -39 c48 -56 114
-74 252 -65 118 7 330 46 332 61 4 31 -336 165 -417 165 -32 0 -31 6 5 37 17
14 37 38 46 54 18 36 27 36 42 3 26 -56 140 -69 290 -33 96 23 150 40 202 62
19 9 50 21 68 27 62 23 35 44 -108 81 -64 16 -217 39 -268 39 l-43 0 25 32
c13 18 28 45 31 61 9 36 21 42 37 18 48 -68 200 -46 408 59 151 76 215 117
193 124 -48 15 -258 27 -350 21 -57 -4 -103 -5 -103 -2 0 3 5 18 11 34 7 15
15 46 18 67 6 38 7 39 23 22 64 -63 181 -33 387 101 112 73 190 135 190 152 2
27 -276 1 -408 -38 -19 -6 -36 -9 -38 -7 -3 3 15 107 23 134 3 10 9 9 29 -4
34 -22 106 -15 169 16 107 54 421 350 371 350 -3 0 -53 -12 -112 -26 -124 -29
-241 -68 -296 -96 -22 -11 -40 -18 -41 -16 -2 2 -1 36 2 76 4 63 7 72 21 66
71 -32 136 -7 243 94 66 62 278 317 278 334 0 14 -23 9 -102 -21 -88 -34 -198
-88 -279 -137 -31 -19 -59 -34 -62 -34 -3 0 -1 16 4 35 7 23 6 48 0 72 -6 20
-9 38 -8 40 2 1 18 -3 35 -9 29 -11 38 -10 78 11 78 42 194 188 313 396 61
107 64 122 19 99 -112 -57 -266 -162 -340 -232 -21 -20 -39 -34 -41 -31 -3 2
-7 36 -10 76 l-6 72 29 -5 c82 -17 204 145 331 439 21 51 44 100 50 110 14 25
4 33 -23 20 -45 -20 -186 -143 -277 -239 -83 -89 -92 -96 -86 -67 4 22 0 46
-14 77 -18 42 -15 66 9 51 5 -3 25 1 43 9 44 18 90 84 140 201 57 130 139 374
135 402 -3 22 -12 16 -91 -65 -80 -80 -237 -276 -237 -294 0 -5 -4 -8 -10 -8
-5 0 -10 7 -10 15 0 9 -11 38 -25 64 l-24 49 34 6 c86 16 148 154 216 476 28
135 35 200 22 200 -9 -1 -134 -169 -179 -240 -16 -25 -47 -82 -70 -127 -39
-77 -54 -92 -54 -53 0 9 -16 35 -35 57 l-34 40 37 11 c81 25 124 147 157 442
15 134 19 243 9 253 -13 12 -190 -307 -207 -372 -3 -11 -10 -21 -17 -21 -16 0
-8 141 14 250 14 66 16 114 12 215 -3 72 -8 299 -11 505 -4 327 -13 516 -41
868 -5 61 -11 85 -23 91 -51 25 -385 88 -400 75 -2 -2 10 -14 25 -29 l29 -25
-50 1 c-53 2 -129 16 -156 30 -9 4 -26 5 -37 2 -11 -3 -36 0 -54 6 -29 9 -122
26 -293 51 -27 4 -115 19 -195 33 -80 14 -188 31 -240 37 -52 6 -126 18 -165
25 -38 8 -104 18 -145 22 -51 6 -74 12 -72 21 1 7 -8 12 -20 12 -13 0 -30 5
-38 10 -13 8 -12 10 3 10 32 0 17 20 -15 20 -44 1 -281 17 -338 24 -25 2 -53
2 -63 0z m-767 -295 c-240 -19 -576 -36 -585 -30 -22 14 305 38 520 38 149 0
153 -1 65 -8z m127 5 c-3 -3 -12 -4 -19 -1 -8 3 -5 6 6 6 11 1 17 -2 13 -5z
m-1184 -91 c-7 -2 -19 -2 -25 0 -7 3 -2 5 12 5 14 0 19 -2 13 -5z m2815 0
c-10 -2 -28 -2 -40 0 -13 2 -5 4 17 4 22 1 32 -1 23 -4z m-2943 -23 c-125 -26
-340 -60 -372 -59 -25 1 -29 3 -13 5 52 8 147 26 210 39 80 18 112 22 170 22
l45 1 -40 -8z m3403 -57 c-10 -2 -28 -2 -40 0 -13 2 -5 4 17 4 22 1 32 -1 23
-4z m-1974 -369 c111 -26 188 -73 256 -159 85 -107 108 -186 117 -396 l6 -147
-26 -26 c-26 -26 -27 -26 -189 -26 -127 0 -168 3 -184 15 -19 13 -22 27 -26
147 -6 153 -21 199 -78 233 -31 18 -55 20 -219 23 -204 4 -254 -4 -294 -47
-14 -14 -30 -44 -36 -66 -7 -27 -11 -226 -11 -595 0 -598 3 -638 52 -686 49
-49 190 -64 395 -45 148 15 175 46 180 216 2 60 6 125 9 143 8 51 41 59 214
57 180 -3 170 -1 170 -24 0 -19 -233 -422 -361 -624 -38 -60 -69 -110 -69
-113 0 -8 -65 -109 -72 -112 -4 -2 -8 -10 -8 -17 0 -17 -61 -117 -68 -110 -5
5 24 78 60 152 37 74 43 72 -259 76 -171 2 -284 7 -311 15 -112 32 -222 112
-277 201 -39 66 -47 88 -70 196 -29 136 -13 1270 19 1385 40 143 112 230 253
306 23 13 147 42 198 46 17 2 149 2 295 1 201 -2 282 -7 334 -19z m1139 -207
c-45 -93 -93 -213 -93 -229 0 -5 18 -8 39 -8 61 0 191 -20 244 -37 100 -32
221 -133 265 -220 11 -21 29 -70 41 -109 19 -64 21 -100 23 -320 3 -279 -2
-317 -60 -427 -38 -74 -104 -140 -183 -185 -28 -15 -49 -34 -49 -44 0 -9 21
-63 46 -120 48 -110 65 -145 197 -418 47 -96 90 -195 97 -219 19 -70 10 -73
-205 -69 -207 4 -203 2 -251 105 -14 32 -45 99 -68 148 -24 50 -51 110 -62
135 -10 24 -59 126 -109 225 l-90 180 -110 3 c-124 3 -150 -1 -159 -24 -4 -9
-9 -175 -11 -368 -3 -193 -7 -361 -10 -372 -7 -30 -29 -34 -207 -34 -121 0
-160 3 -171 14 -11 12 -15 93 -20 438 l-6 423 97 170 c53 94 102 179 108 190
21 40 39 70 44 75 3 3 16 25 30 50 45 83 128 214 137 217 5 2 9 -11 9 -29 2
-244 6 -375 13 -386 6 -11 55 -13 222 -12 200 0 217 2 259 23 73 36 79 59 80
299 2 315 -12 330 -295 333 -121 2 -149 5 -147 16 3 11 42 81 177 314 108 186
180 303 184 299 2 -2 0 -14 -6 -27z m-3731 -1711 c12 -9 42 -16 65 -16 32 0
43 -4 43 -15 0 -8 -5 -15 -10 -15 -6 0 -34 -16 -62 -35 -29 -19 -54 -32 -57
-29 -3 3 -6 19 -7 37 -1 18 -5 55 -8 82 -5 36 -4 44 3 29 5 -12 20 -29 33 -38z
m5473 -3 c-4 -10 -9 -42 -12 -70 -3 -29 -9 -53 -12 -52 -18 2 -123 76 -120 84
2 6 20 9 40 7 28 -2 44 3 65 22 34 30 49 33 39 9z m-5311 -278 c3 -8 2 -15 -2
-15 -5 0 -60 -42 -123 -94 -63 -52 -117 -92 -120 -88 -4 4 -9 33 -13 65 -5 46
-3 57 8 57 8 0 18 -4 21 -10 17 -28 107 7 165 64 39 38 55 44 64 21z m5231
-79 c40 -27 108 -36 120 -16 15 25 27 8 20 -27 -7 -33 -11 -60 -14 -98 -1 -5
-18 7 -38 26 -45 42 -149 128 -183 150 -17 11 -21 21 -16 34 6 17 9 16 39 -12
18 -17 50 -42 72 -57z m-5183 -152 c7 -27 2 -35 -85 -119 -50 -50 -118 -119
-149 -153 -31 -34 -61 -62 -65 -62 -5 0 -13 19 -20 43 -6 23 -14 52 -18 64 -7
22 -7 22 24 7 64 -32 138 24 236 179 27 42 53 76 59 74 5 -2 13 -17 18 -33z
m5112 -84 c96 -145 156 -182 238 -146 15 7 15 4 -2 -33 -11 -22 -20 -49 -20
-59 0 -10 -3 -21 -6 -25 -5 -4 -313 300 -314 310 0 11 22 53 28 53 5 0 39 -45
76 -100z m-63 -180 c80 -242 160 -350 260 -350 16 0 29 -2 29 -4 0 -2 -13 -29
-29 -61 l-29 -57 -53 78 c-29 44 -70 104 -91 134 -51 75 -133 166 -140 154 -7
-12 32 -225 62 -339 6 -22 15 -54 19 -71 5 -18 16 -46 25 -64 9 -18 16 -39 16
-45 0 -7 20 -34 44 -60 35 -36 51 -46 73 -45 44 3 45 2 18 -37 -14 -21 -25
-46 -25 -55 0 -23 -29 -23 -36 0 -4 9 -22 50 -40 89 -19 40 -34 75 -34 78 0 5
-9 20 -90 148 -41 65 -65 81 -65 41 4 -144 28 -347 54 -444 20 -74 27 -90 58
-134 29 -41 37 -46 70 -46 l37 0 -30 -32 c-17 -18 -39 -46 -49 -63 l-18 -29
-18 69 c-22 93 -61 196 -114 307 -41 86 -45 90 -54 67 -17 -46 -24 -316 -11
-439 13 -131 38 -188 96 -222 l34 -20 -29 -24 c-16 -13 -37 -41 -47 -61 -10
-21 -19 -31 -20 -23 -30 209 -43 273 -80 398 -29 99 -49 117 -59 55 -4 -21
-13 -74 -21 -118 -8 -44 -20 -152 -26 -239 -13 -171 -16 -172 -43 -11 -19 110
-25 129 -35 119 -18 -19 -90 -283 -115 -419 -26 -145 -15 -226 38 -271 34 -28
35 -26 -18 -50 -22 -10 -43 -20 -47 -22 -5 -2 -8 110 -8 248 0 292 -3 299 -64
160 -121 -277 -161 -424 -142 -524 4 -20 21 -52 38 -71 l30 -35 -31 0 c-18 0
-46 -7 -62 -16 -17 -8 -33 -14 -35 -11 -2 2 5 46 15 98 20 96 35 204 47 343 5
63 4 78 -7 74 -18 -6 -147 -234 -194 -343 -48 -113 -57 -144 -62 -228 -5 -73
7 -99 52 -118 18 -7 18 -8 -5 -9 -36 -2 -61 -6 -97 -14 -18 -4 -33 -5 -33 -2
0 4 18 62 39 129 22 67 44 145 49 172 27 131 35 185 28 192 -19 19 -196 -227
-277 -386 -51 -99 -64 -189 -35 -234 l17 -25 -60 -4 c-34 -1 -61 -2 -61 0 0 3
22 52 68 152 37 78 101 283 94 296 -5 9 -23 -2 -62 -38 -30 -27 -75 -66 -100
-86 -52 -43 -59 -51 -125 -157 -86 -135 -100 -181 -81 -247 l8 -27 -56 0 c-31
1 -56 4 -56 8 0 3 23 44 51 91 64 105 89 159 82 177 -4 10 -13 7 -35 -12 -30
-25 -48 -32 -48 -17 0 4 5 13 12 20 6 6 8 15 4 19 -9 9 -31 -25 -31 -47 0 -8
-11 -17 -24 -18 -13 -2 -26 -12 -28 -23 -6 -22 -33 -26 -33 -4 0 8 5 15 11 15
20 0 49 42 49 69 0 21 2 23 10 11 8 -13 11 -11 16 8 7 26 12 27 42 6 25 -17
29 -10 7 12 -19 19 -19 30 0 38 9 3 15 0 15 -9 0 -8 5 -15 10 -15 11 0 11 2
15 37 4 40 45 73 45 37 0 -8 4 -13 10 -9 5 3 7 11 4 18 -5 13 129 147 146 147
6 0 10 4 10 8 0 5 42 52 93 104 50 52 104 110 119 129 30 39 37 47 113 144 31
39 72 95 93 125 20 30 52 74 69 98 73 97 193 307 293 512 34 69 65 132 69 140
10 19 91 214 125 301 14 36 26 73 26 81 0 9 7 18 15 22 8 3 15 16 15 28 0 13
7 31 15 42 12 16 13 13 9 -30 -4 -33 -1 -55 9 -68 12 -17 16 -11 43 73 16 50
32 91 36 91 5 0 8 6 8 14 0 7 9 42 20 77 20 62 43 142 80 284 62 234 58 224
70 205 5 -8 24 -58 41 -110z m-2506 -154 c99 -4 138 -14 131 -32 -3 -7 -1 -16
4 -19 4 -3 2 -18 -6 -34 l-14 -28 -138 -8 c-155 -8 -251 -8 -314 3 -41 7 -44
10 -54 52 -10 42 -9 46 10 53 36 15 157 26 231 21 39 -2 106 -6 150 -8z m-433
-16 c11 -13 14 -22 7 -26 -8 -4 -8 -9 -1 -13 6 -3 8 -18 5 -32 -4 -20 -13 -28
-35 -33 -45 -9 -101 -7 -156 4 l-49 11 -1 44 c-2 39 1 44 25 53 16 6 64 11
108 11 68 1 83 -2 97 -19z m1111 5 c13 -6 15 -11 6 -21 -6 -7 -8 -22 -5 -32 4
-12 -1 -25 -13 -36 -18 -16 -39 -18 -171 -18 -83 1 -156 5 -163 9 -7 4 -23 9
-36 11 -47 6 -55 18 -22 32 25 10 29 15 20 26 -6 8 -19 15 -28 15 -9 1 18 7
59 14 77 14 319 13 353 0z m1614 -137 c-3 -7 -5 -2 -5 12 0 14 2 19 5 13 2 -7
2 -19 0 -25z m-50 -110 c-3 -7 -5 -2 -5 12 0 14 2 19 5 13 2 -7 2 -19 0 -25z
m-2619 15 c13 -3 28 -17 33 -32 l10 -26 17 23 c9 12 33 27 52 32 45 14 333 2
355 -14 9 -6 17 -28 18 -50 2 -36 -1 -40 -28 -48 -16 -4 -102 -9 -190 -11
-164 -2 -205 5 -205 38 0 23 -20 17 -29 -9 -11 -28 -51 -38 -119 -29 -53 7
-75 20 -68 40 3 7 1 13 -4 13 -14 0 -12 23 3 44 20 27 104 43 155 29z m906
-13 c22 -8 26 -16 26 -49 0 -59 -18 -65 -169 -58 -143 6 -168 12 -149 34 9 11
9 16 -3 24 -12 7 -12 9 1 10 8 1 18 1 23 0 12 -2 8 17 -5 22 -7 2 7 9 32 15
59 13 212 15 244 2z m1697 -70 c6 0 7 -5 4 -10 -11 -19 -25 1 -24 33 2 30 2
31 6 5 2 -16 9 -28 14 -28z m9 -85 c0 -8 -4 -17 -10 -20 -6 -4 -10 5 -10 20 0
15 4 24 10 20 6 -3 10 -12 10 -20z m-2328 -105 l23 0 -3 -602 c-1 -332 -2
-613 -2 -626 0 -19 -4 -22 -19 -17 -11 3 -29 0 -40 -6 -15 -10 -23 -10 -35 0
-14 12 -16 80 -16 627 0 543 2 614 16 628 11 12 20 13 34 6 10 -6 29 -10 42
-10z m-315 -4 c5 -4 5 -26 3 -629 0 -318 1 -581 4 -585 2 -4 -2 -16 -10 -27
-13 -17 -29 -21 -109 -23 l-94 -4 3 36 c1 20 4 37 7 39 2 2 28 9 58 15 30 7
60 17 68 23 10 9 13 122 13 591 l0 580 27 -7 c16 -4 29 -8 30 -9z m576 8 l37
-7 0 -624 c0 -564 -2 -625 -16 -619 -8 3 -23 2 -33 -4 -10 -5 -27 -6 -39 -3
l-22 5 0 629 c0 704 -8 636 73 623z m325 -576 l2 -577 30 -21 c23 -16 46 -21
108 -23 45 -1 86 -8 94 -15 9 -7 39 -19 67 -28 44 -13 52 -18 49 -37 -3 -21
-7 -22 -103 -21 -118 0 -158 14 -163 57 -2 15 -7 25 -12 22 -4 -3 -6 -14 -3
-25 4 -15 -2 -22 -22 -30 -38 -14 -101 5 -109 34 -3 11 -6 294 -6 628 0 641
-2 619 45 615 20 -2 20 -10 23 -579z m-2421 380 c-3 -8 -6 -5 -6 6 -1 11 2 17
5 13 3 -3 4 -12 1 -19z m83 -157 c0 -11 6 -26 13 -33 6 -7 32 -51 56 -98 24
-47 64 -119 89 -160 66 -109 104 -180 97 -180 -9 0 -35 27 -35 35 0 4 -8 19
-19 33 -26 37 -57 94 -138 252 -80 156 -86 170 -73 170 6 0 10 -9 10 -19z
m3527 -293 c-3 -8 -6 -5 -6 6 -1 11 2 17 5 13 3 -3 4 -12 1 -19z m-91 -156
c-15 -15 -15 -15 -4 10 7 15 15 23 17 17 2 -6 -4 -18 -13 -27z m-3156 -44 c0
-6 7 -19 16 -29 9 -10 14 -22 13 -28 -2 -6 -14 7 -27 29 -12 22 -18 40 -12 40
5 0 10 -5 10 -12z m3097 -46 c-10 -10 -17 -24 -17 -30 0 -7 -4 -12 -10 -12 -5
0 -10 -7 -10 -15 0 -8 -3 -15 -8 -15 -4 0 -18 -18 -32 -40 -14 -22 -29 -40
-34 -40 -4 0 -2 9 5 19 8 11 36 52 63 91 26 39 51 69 54 66 3 -3 -2 -14 -11
-24z m-3787 -184 l0 -123 -19 31 c-11 18 -33 40 -49 49 l-30 18 38 36 c25 24
41 49 45 74 4 20 9 37 11 37 2 0 4 -55 4 -122z m4461 60 c7 -26 25 -55 47 -75
22 -20 30 -33 21 -33 -8 0 -28 -13 -44 -30 -16 -16 -32 -30 -37 -30 -4 0 -8
47 -8 105 0 58 2 105 5 105 2 0 9 -19 16 -42z m-848 -113 c-3 -9 -8 -14 -10
-11 -3 3 -2 9 2 15 9 16 15 13 8 -4z m-2056 -137 c3 -24 0 -28 -19 -28 -13 0
-55 -9 -93 -20 -73 -21 -150 -26 -159 -11 -7 11 19 33 64 56 38 19 116 34 169
31 30 -1 35 -5 38 -28z m-752 -18 c3 -5 1 -10 -4 -10 -6 0 -11 5 -11 10 0 6 2
10 4 10 3 0 8 -4 11 -10z m2487 -35 c26 -9 50 -21 53 -26 10 -15 -38 -10 -104
12 -55 19 -60 23 -44 34 10 7 23 9 33 5 8 -5 36 -16 62 -25z m-2037 -15 c-11
-11 -36 -22 -55 -26 l-35 -6 28 26 c16 14 40 26 55 26 26 0 26 0 7 -20z m2135
-34 c0 -3 -4 -8 -10 -11 -5 -3 -10 -1 -10 4 0 6 5 11 10 11 6 0 10 -2 10 -4z
m-2126 -175 c-2 -3 -12 3 -22 13 -16 17 -16 18 5 5 12 -7 20 -15 17 -18z m73
-57 c21 -20 52 -46 68 -57 17 -12 32 -24 35 -27 18 -20 290 -210 301 -210 5 0
9 -4 9 -10 0 -5 7 -10 15 -10 8 0 15 -4 15 -10 0 -12 -41 3 -90 33 -133 81
-435 327 -402 327 6 0 28 -16 49 -36z m1673 -333 c0 -12 -20 -25 -27 -18 -7 7
6 27 18 27 5 0 9 -4 9 -9z m-125 -71 c-3 -5 -11 -10 -16 -10 -6 0 -7 5 -4 10
3 6 11 10 16 10 6 0 7 -4 4 -10z m110 0 c3 -5 1 -10 -4 -10 -6 0 -11 5 -11 10
0 6 2 10 4 10 3 0 8 -4 11 -10z m-150 -171 l0 -48 -55 4 c-30 2 -56 4 -58 5
-1 0 3 11 11 25 13 26 87 78 97 68 3 -2 5 -27 5 -54z m-222 -39 c4 -17 2 -18
-14 -9 -11 5 -17 14 -14 20 10 15 22 10 28 -11z m-108 -70 c-3 -5 -12 -10 -18
-10 -7 0 -6 4 3 10 19 12 23 12 15 0z"/>
<path d="M4430 1069 c0 -5 5 -7 10 -4 6 3 10 8 10 11 0 2 -4 4 -10 4 -5 0 -10
-5 -10 -11z"/>
<path d="M4356 1023 c-11 -11 -6 -23 9 -23 8 0 15 4 15 9 0 13 -16 22 -24 14z"/>
<path d="M4260 6990 c34 -26 60 -26 53 0 -4 15 -14 20 -42 20 l-36 0 25 -20z"/>
<path d="M2028 6943 c7 -3 16 -2 19 1 4 3 -2 6 -13 5 -11 0 -14 -3 -6 -6z"/>
<path d="M1990 6936 c0 -2 7 -7 16 -10 8 -3 12 -2 9 4 -6 10 -25 14 -25 6z"/>
<path d="M1071 3284 c0 -11 3 -14 6 -6 3 7 2 16 -1 19 -3 4 -6 -2 -5 -13z"/>
<path d="M1047 3253 c-13 -12 -7 -43 8 -43 9 0 15 9 15 25 0 24 -10 32 -23 18z"/>
<path d="M1086 3245 c4 -8 8 -15 10 -15 2 0 4 7 4 15 0 8 -4 15 -10 15 -5 0
-7 -7 -4 -15z"/>
<path d="M1061 3163 c1 -19 3 -22 6 -10 3 11 11 16 19 13 8 -3 14 -1 14 3 0 8
-23 21 -36 21 -2 0 -3 -12 -3 -27z"/>
<path d="M1085 3110 c-3 -5 -1 -10 4 -10 6 0 11 5 11 10 0 6 -2 10 -4 10 -3 0
-8 -4 -11 -10z"/>
<path d="M2010 1466 c0 -9 5 -16 10 -16 6 0 10 4 10 9 0 6 -4 13 -10 16 -5 3
-10 -1 -10 -9z"/>
<path d="M3017 542 c-39 -44 -197 -372 -197 -408 0 -8 6 -14 13 -14 23 0 214
146 287 219 59 59 108 127 98 135 -5 5 -142 68 -165 77 -15 5 -25 3 -36 -9z"/>
</g>
</svg>
